HIERARCHY
ROOT Hips
{
    OFFSET 0.000000 0.000000 0.000000
    CHANNELS 6 Xposition Yposition Zposition Zrotation Xrotation Yrotation
    JOINT Spine
    {
        OFFSET -0.000000 14.517291 0.000000
        CHANNELS 3 Zrotation Xrotation Yrotation
        JOINT Spine1
        {
            OFFSET -0.000000 37.558300 0.000000
            CHANNELS 3 Zrotation Xrotation Yrotation
            JOINT Neck
            {
                OFFSET -0.000000 37.404057 3.400369
                CHANNELS 3 Zrotation Xrotation Yrotation
                JOINT Head
                {
                    OFFSET -0.000000 24.785618 -3.540803
                    CHANNELS 3 Zrotation Xrotation Yrotation
                    End Site
                    {
                        OFFSET -0.000000 35.408028 0.000000
                    }
                }
            }
            JOINT LeftShoulder
            {
                OFFSET 6.992933 33.973492 -0.192664
                CHANNELS 3 Zrotation Xrotation Yrotation
                JOINT LeftArm
                {
                    OFFSET 21.527611 0.000000 0.000000
                    CHANNELS 3 Zrotation Xrotation Yrotation
                    JOINT LeftForeArm
                    {
                        OFFSET 56.353916 0.000000 0.000000
                        CHANNELS 3 Zrotation Xrotation Yrotation
                        JOINT LeftHand
                        {
                            OFFSET 47.774071 0.000000 0.000000
                            CHANNELS 3 Zrotation Xrotation Yrotation
                            End Site
                            {
                                OFFSET 26.556021 0.000000 0.000000
                            }
                        }
                    }
                }
            }
            JOINT RightShoulder
            {
                OFFSET -7.065357 33.973492 -0.192664
                CHANNELS 3 Zrotation Xrotation Yrotation
                JOINT RightArm
                {
                    OFFSET -21.527611 0.000000 0.000000
                    CHANNELS 3 Zrotation Xrotation Yrotation
                    JOINT RightForeArm
                    {
                        OFFSET -56.353916 0.000000 0.000000
                        CHANNELS 3 Zrotation Xrotation Yrotation
                        JOINT RightHand
                        {
                            OFFSET -47.774071 0.000000 0.000000
                            CHANNELS 3 Zrotation Xrotation Yrotation
                            End Site
                            {
                                OFFSET -26.556021 0.000000 0.000000
                            }
                        }
                    }
                }
            }
        }
    }
    JOINT LeftUpLeg
    {
        OFFSET 17.704014 0.000000 0.000000
        CHANNELS 3 Zrotation Xrotation Yrotation
        JOINT LeftLeg
        {
            OFFSET -0.000000 -81.181816 0.000000
            CHANNELS 3 Zrotation Xrotation Yrotation
            JOINT LeftFoot
            {
                OFFSET -0.000000 -62.821102 0.000000
                CHANNELS 3 Zrotation Xrotation Yrotation
                JOINT LeftToeBase
                {
                    OFFSET -0.000000 -11.507608 26.556021
                    CHANNELS 3 Zrotation Xrotation Yrotation
                    End Site
                    {
                        OFFSET -0.000000 0.000000 7.081605
                    }
                }
            }
        }
    }
    JOINT RightUpLeg
    {
        OFFSET -17.704014 0.000000 0.000000
        CHANNELS 3 Zrotation Xrotation Yrotation
        JOINT RightLeg
        {
            OFFSET -0.000000 -81.181816 0.000000
            CHANNELS 3 Zrotation Xrotation Yrotation
            JOINT RightFoot
            {
                OFFSET -0.000000 -62.821102 0.000000
                CHANNELS 3 Zrotation Xrotation Yrotation
                JOINT RightToeBase
                {
                    OFFSET -0.000000 -11.507608 26.556021
                    CHANNELS 3 Zrotation Xrotation Yrotation
                    End Site
                    {
                        OFFSET -0.000000 0.000000 7.081605
                    }
                }
            }
        }
    }
}
MOTION
Frames:    14
Frame Time:    0.008333
-12.551414    163.492462    -36.098743    -1.825186    -4.433876    31.591095    0.343813    -1.258874    0.317768    -1.293716    0.934994    0.113717    0.942981    5.628637    -14.528445    11.494045    -2.604652    -13.357315    0.717786    9.503701    -12.765018    -34.807365    21.289146    -44.858894    -4.723217    -26.672403    -118.879196    -11.196391    -32.488300    -13.448662    0.054198    12.066798    -5.364293    29.418308    16.604095    45.678738    -3.840751    10.957201    40.922752    -23.448912    4.742680    35.875095    10.548938    0.920771    -9.732421    -9.354010    14.750261    -22.286823    2.257096    -15.438039    50.030704    0.000000    0.000000    0.000000    -0.198727    -3.463166    -1.420381    5.663168    9.425148    -8.694447    -1.588727    -2.276314    -12.229874    0.000000    0.000000    0.000000    
-12.433333    163.503479    -36.154594    -1.832325    -4.433257    31.540686    0.347272    -1.239693    0.323267    -1.307135    0.900377    0.115186    0.945474    5.650682    -14.546880    11.504639    -2.631353    -13.372329    0.709861    9.526443    -12.762928    -34.817364    21.347242    -44.862720    -4.684472    -26.734482    -118.859543    -11.197968    -32.491463    -13.410620    0.058608    12.085653    -5.378047    29.503889    16.521723    45.678635    -3.758886    10.999866    40.955761    -23.457212    4.753826    35.875706    10.515536    1.013468    -9.774348    -9.362890    14.573658    -22.218626    2.282974    -15.370559    50.020557    0.000000    0.000000    0.000000    -0.233175    -3.472024    -1.365041    5.657922    9.420637    -8.745343    -1.540194    -2.231663    -12.213911    0.000000    0.000000    0.000000    
-12.316319    163.510651    -36.208870    -1.830805    -4.429850    31.494476    0.358316    -1.216128    0.318783    -1.344134    0.867336    0.114041    0.942517    5.668430    -14.562414    11.540507    -2.658031    -13.379694    0.708728    9.526454    -12.752120    -34.845921    21.405947    -44.825245    -4.530694    -26.719719    -118.751450    -11.155172    -32.229885    -13.611225    0.080572    12.092343    -5.390596    29.530363    16.521479    45.687939    -3.767683    10.983480    41.002918    -23.458048    4.740465    35.882229    10.467144    1.100275    -9.814553    -9.361373    14.419130    -22.162182    2.320792    -15.312539    50.024227    0.000000    0.000000    0.000000    -0.282614    -3.476903    -1.317917    5.659135    9.419749    -8.765779    -1.494430    -2.204907    -12.200323    0.000000    0.000000    0.000000    
-12.209380    163.516647    -36.254181    -1.826474    -4.428785    31.454247    0.344361    -1.200560    0.312585    -1.346892    0.845492    0.111770    0.937685    5.678038    -14.571398    11.558284    -2.672261    -13.384233    0.698660    9.539635    -12.752977    -34.866409    21.442354    -44.806496    -4.552245    -26.718493    -118.757614    -11.157190    -32.261250    -13.599007    0.094714    12.088556    -5.398661    29.541960    16.545218    45.691082    -3.740956    10.841167    41.024643    -23.523260    4.607861    35.695061    10.418401    1.187877    -9.867741    -9.347469    14.268653    -22.110977    2.343604    -15.267519    50.034489    0.000000    0.000000    0.000000    -0.324111    -3.473784    -1.314389    5.649906    9.418817    -8.766027    -1.458570    -2.180183    -12.175010    0.000000    0.000000    0.000000    
-12.115977    163.518036    -36.298603    -1.831714    -4.419433    31.420713    0.323929    -1.195128    0.301907    -1.334174    0.830043    0.108075    0.925624    5.675221    -14.585459    11.568382    -2.674872    -13.395897    0.689671    9.561354    -12.741222    -34.872456    21.448959    -44.811050    -4.560585    -26.683313    -118.748901    -11.155456    -32.239868    -13.587903    0.100044    12.092132    -5.418829    29.538322    16.565020    45.716618    -3.778873    10.790997    41.074280    -23.488213    4.583105    35.702480    10.380115    1.246867    -9.890010    -9.335792    14.149958    -22.073925    2.366613    -15.236349    50.018608    0.000000    0.000000    0.000000    -0.362872    -3.484347    -1.307327    5.649612    9.417051    -8.763662    -1.424105    -2.163441    -12.168276    0.000000    0.000000    0.000000    
-12.023896    163.520767    -36.339340    -1.837135    -4.407711    31.383478    0.304039    -1.202396    0.295370    -1.326737    0.826938    0.105766    0.912445    5.687923    -14.605042    11.600391    -2.695955    -13.407694    0.687227    9.566407    -12.747461    -34.907825    21.423441    -44.786922    -4.613590    -26.563688    -118.767204    -11.095387    -32.215347    -13.539576    0.110382    12.088582    -5.433005    29.536547    16.579582    45.737816    -3.795434    10.732054    41.135563    -23.464996    4.557903    35.622681    10.344456    1.309870    -9.926267    -9.330647    14.015465    -22.063396    2.402698    -15.184227    50.052921    0.000000    0.000000    0.000000    -0.403547    -3.492945    -1.301415    5.652991    9.411889    -8.750051    -1.385996    -2.149899    -12.152553    0.000000    0.000000    0.000000    
-11.940216    163.519867    -36.371693    -1.845737    -4.390532    31.348244    0.275876    -1.218786    0.290896    -1.310432    0.822110    0.104183    0.914425    5.698229    -14.620845    11.605158    -2.714275    -13.421732    0.686784    9.573595    -12.760725    -34.930679    21.412384    -44.778728    -4.807916    -26.519100    -118.899506    -11.152258    -32.486454    -13.283687    0.108634    12.069149    -5.431573    29.544060    16.586781    45.732464    -3.787357    10.715665    41.191242    -23.451178    4.560175    35.556282    10.312294    1.358763    -9.934736    -9.325030    13.905642    -22.038578    2.432627    -15.149466    50.053314    0.000000    0.000000    0.000000    -0.438732    -3.506043    -1.316292    5.656060    9.405664    -8.747815    -1.366665    -2.144811    -12.131649    0.000000    0.000000    0.000000    
-11.858997    163.520233    -36.408096    -1.857486    -4.365333    31.314453    0.265250    -1.243614    0.289155    -1.317314    0.821198    0.103366    0.913132    5.689683    -14.632968    11.605042    -2.707370    -13.435081    0.682801    9.573102    -12.774735    -34.929794    21.406162    -44.762451    -4.819992    -26.448742    -118.899254    -11.143731    -32.437878    -13.288224    0.099939    12.035285    -5.419987    29.607296    16.530590    45.703445    -3.730314    10.792469    41.217365    -23.489086    4.597511    35.588810    10.278210    1.392652    -9.948553    -9.319908    13.802640    -22.046894    2.462648    -15.118931    50.090168    0.000000    0.000000    0.000000    -0.478480    -3.530882    -1.312904    5.659005    9.405087    -8.717463    -1.329925    -2.136000    -12.131457    0.000000    0.000000    0.000000    
-11.788236    163.518417    -36.437328    -1.866086    -4.338828    31.287306    0.246638    -1.262134    0.272710    -1.305443    0.809978    0.097711    0.888245    5.671817    -14.636546    11.599985    -2.679323    -13.440147    0.654002    9.588910    -12.762135    -34.876759    21.441029    -44.769672    -4.808001    -26.467188    -118.903130    -11.205986    -32.430546    -13.310732    0.070964    12.028576    -5.412758    29.648880    16.495815    45.710564    -3.690694    10.840576    41.243015    -23.509665    4.616015    35.630135    10.251090    1.425129    -9.950168    -9.324708    13.699062    -22.042530    2.492334    -15.082705    50.100063    0.000000    0.000000    0.000000    -0.512746    -3.549862    -1.326014    5.656482    9.393762    -8.729878    -1.313061    -2.133889    -12.085421    0.000000    0.000000    0.000000    
-11.726897    163.514847    -36.463848    -1.875573    -4.313363    31.266991    0.228509    -1.287713    0.264158    -1.318361    0.817822    0.095149    0.928739    5.663573    -14.643623    11.550847    -2.692877    -13.458253    0.683821    9.601205    -12.763234    -34.842651    21.481798    -44.807522    -4.789061    -26.494370    -118.894096    -11.254688    -32.421467    -13.325356    0.087304    12.004291    -5.413917    29.662617    16.451458    45.702385    -3.637760    10.893810    41.277489    -23.520744    4.660416    35.574802    10.228195    1.450709    -9.938492    -9.323279    13.615893    -22.065426    2.557852    -14.989749    50.087452    0.000000    0.000000    0.000000    -0.546167    -3.569970    -1.311405    5.671636    9.383615    -8.745695    -1.305961    -2.134538    -12.090435    0.000000    0.000000    0.000000    
-11.669628    163.512802    -36.485916    -1.887125    -4.293681    31.253021    0.213434    -1.308566    0.243655    -1.322503    0.824952    0.088810    0.942471    5.633732    -14.648293    11.532654    -2.668486    -13.470120    0.695522    9.592980    -12.767205    -34.813950    21.529966    -44.811970    -4.786928    -26.511906    -118.905800    -11.286471    -32.432808    -13.331583    0.095075    12.001039    -5.418640    29.658445    16.422922    45.726337    -3.616714    10.927544    41.288692    -23.532127    4.676023    35.606594    10.213937    1.470510    -9.936264    -9.326262    13.539180    -22.085924    2.553897    -15.015188    50.119469    0.000000    0.000000    0.000000    -0.567198    -3.585272    -1.335143    5.664594    9.378527    -8.725171    -1.300541    -2.140297    -12.069758    0.000000    0.000000    0.000000    
-11.615811    163.509750    -36.506077    -1.897098    -4.268765    31.239645    0.213228    -1.326050    0.225436    -1.346303    0.817286    0.082334    0.930166    5.630770    -14.650288    11.552316    -2.662599    -13.468419    0.697013    9.578864    -12.778783    -34.796577    21.551249    -44.780338    -4.796228    -26.478601    -118.922302    -11.319457    -32.410606    -13.367891    0.104406    12.026239    -5.425486    29.658154    16.378435    45.765427    -3.595592    10.970991    41.293430    -23.550552    4.705976    35.607597    10.195158    1.485826    -9.915591    -9.328379    13.478908    -22.097221    2.601774    -14.951269    50.098869    0.000000    0.000000    0.000000    -0.594230    -3.604454    -1.355932    5.670356    9.371730    -8.752173    -1.294695    -2.139817    -12.032387    0.000000    0.000000    0.000000    
-11.565785    163.506180    -36.525936    -1.904623    -4.248556    31.233994    0.196136    -1.344349    0.211279    -1.339404    0.829791    0.078518    0.913096    5.601368    -14.650084    11.561305    -2.650935    -13.466458    0.690293    9.558105    -12.795981    -34.762516    21.602268    -44.775318    -4.783235    -26.494968    -118.925056    -11.355272    -32.401814    -13.395845    0.100041    12.021625    -5.439189    29.637495    16.384966    45.787132    -3.597735    10.954289    41.320801    -23.570255    4.694496    35.562843    10.176607    1.497041    -9.915797    -9.329384    13.414462    -22.081150    2.586285    -14.990215    50.098106    0.000000    0.000000    0.000000    -0.617630    -3.615167    -1.365178    5.671820    9.353306    -8.758269    -1.300701    -2.136836    -12.018360    0.000000    0.000000    0.000000    
-11.521812    163.505417    -36.543610    -1.913148    -4.232525    31.227276    0.195302    -1.347820    0.194831    -1.349272    0.820131    0.072411    0.882126    5.603842    -14.655647    11.590611    -2.654618    -13.464072    0.684628    9.562904    -12.800274    -34.728848    21.617533    -44.773602    -4.806785    -26.466797    -118.946922    -11.372052    -32.409813    -13.404858    0.099613    12.031361    -5.438661    29.627386    16.379477    45.802948    -3.611514    10.970382    41.320667    -23.589001    4.697093    35.617523    10.158849    1.494259    -9.903158    -9.320166    13.412076    -22.215452    2.667970    -14.920085    50.181442    0.000000    0.000000    0.000000    -0.629588    -3.638791    -1.406393    5.655566    9.375951    -8.622249    -1.275354    -2.142268    -12.129547    0.000000    0.000000    0.000000    
